# xmcd
#
# Track frame offsets: 
#        150
#        6178
#        20221
#        37367
#        62840
#        83264
#        88293
#        105005
#        118989
#        139017
#        155222
#        158267
#        178873
#        196060
#        199481
#        214911
#        231258
#
# Disc length: 3339 seconds
#
# Revision: 1
# Processed by: cddbd v1.5.2PL0 Copyright (c) Steve Scherf et al.
# Submitted via: ExactAudioCopy v1.0b3
#
DISCID=ed0d0911
DTITLE=Dwele - W.ants W.orld W.omen
DYEAR=2010
DGENRE=Soul
TTITLE0=Wants (Intro)
TTITLE1=I Wish
TTITLE2=Grown
TTITLE3=Dodgin’ Your Phone (feat. David Banner)
TTITLE4=Dim The Lights (feat. Raheem DeVaughn)
TTITLE5=World (Intro)
TTITLE6=How I Deal (feat. Slum Village)
TTITLE7=Hangover
TTITLE8=My People
TTITLE9=Detroit Sunrise (feat. Monica Blaire and Lloyd Dwayne)
TTITLE10=Women (Intro) (feat. Kindra Parker)
TTITLE11=I Understand
TTITLE12=Love You Right
TTITLE13=More Than A (Interlude)
TTITLE14=What's Not To Love
TTITLE15=Give Me A Chance
TTITLE16=I Wanna (feat. DJ Quik)
EXTD=
EXTT0=
EXTT1=
EXTT2=
EXTT3=
EXTT4=
EXTT5=
EXTT6=
EXTT7=
EXTT8=
EXTT9=
EXTT10=
EXTT11=
EXTT12=
EXTT13=
EXTT14=
EXTT15=
EXTT16=
PLAYORDER=
